<?xml version="1.0" encoding="UTF-8"?>
<!DOCTYPE score-partwise PUBLIC "-//Recordare//DTD MusicXML 3.1 Partwise//EN" "http://www.musicxml.org/dtds/partwise.dtd">
<score-partwise version="3.1">
  <work>
    <work-title>Wyble Etude — ii–V–I</work-title>
  </work>
  <part-list>
    <score-part id="P1">
      <part-name>Guitar</part-name>
      <score-instrument id="P1-I1">
        <instrument-name>Guitar</instrument-name>
      </score-instrument>
    </score-part>
  </part-list>
  <part id="P1">
  <measure number="1">
    <attributes>
      <divisions>4</divisions>
      <key>
        <fifths>0</fifths>
      </key>
      <time>
        <beats>4</beats>
        <beat-type>4</beat-type>
      </time>
      <clef number="1">
        <sign>G</sign>
        <line>2</line>
      </clef>
      <clef number="2">
        <sign>G</sign>
        <line>2</line>
      </clef>
    </attributes>
    <note>
      <pitch>
        <step>D</step>
        <octave>5</octave>
      </pitch>
      <duration>4</duration>
      <type>quarter</type>
      <voice>1</voice>
      <staff>1</staff>
    </note>
    <note>
      <pitch>
        <step>E</step>
        <octave>5</octave>
      </pitch>
      <duration>4</duration>
      <type>quarter</type>
      <voice>1</voice>
      <staff>1</staff>
    </note>
    <backup>
      <duration>4</duration>
    </backup>
    <note>
      <pitch>
        <step>C</step>
        <octave>4</octave>
      </pitch>
      <duration>4</duration>
      <type>quarter</type>
      <voice>2</voice>
      <staff>2</staff>
    </note>
    <note>
      <pitch>
        <step>D</step>
        <octave>5</octave>
      </pitch>
      <duration>4</duration>
      <type>quarter</type>
      <voice>1</voice>
      <staff>1</staff>
    </note>
    <note>
      <pitch>
        <step>D</step>
        <octave>5</octave>
      </pitch>
      <duration>4</duration>
      <type>quarter</type>
      <voice>1</voice>
      <staff>1</staff>
    </note>
    <backup>
      <duration>4</duration>
    </backup>
    <note>
      <pitch>
        <step>A</step>
        <alter>1</alter>
        <octave>3</octave>
      </pitch>
      <duration>4</duration>
      <type>quarter</type>
      <voice>2</voice>
      <staff>2</staff>
    </note>
  </measure>
  <measure number="2">
    <note>
      <pitch>
        <step>E</step>
        <octave>5</octave>
      </pitch>
      <duration>4</duration>
      <type>quarter</type>
      <voice>1</voice>
      <staff>1</staff>
    </note>
    <note>
      <pitch>
        <step>E</step>
        <octave>5</octave>
      </pitch>
      <duration>4</duration>
      <type>quarter</type>
      <voice>1</voice>
      <staff>1</staff>
    </note>
    <backup>
      <duration>4</duration>
    </backup>
    <note>
      <pitch>
        <step>C</step>
        <octave>4</octave>
      </pitch>
      <duration>4</duration>
      <type>quarter</type>
      <voice>2</voice>
      <staff>2</staff>
    </note>
    <note>
      <pitch>
        <step>E</step>
        <octave>5</octave>
      </pitch>
      <duration>4</duration>
      <type>quarter</type>
      <voice>1</voice>
      <staff>1</staff>
    </note>
    <note>
      <pitch>
        <step>E</step>
        <octave>5</octave>
      </pitch>
      <duration>4</duration>
      <type>quarter</type>
      <voice>1</voice>
      <staff>1</staff>
    </note>
    <backup>
      <duration>4</duration>
    </backup>
    <note>
      <pitch>
        <step>C</step>
        <octave>4</octave>
      </pitch>
      <duration>4</duration>
      <type>quarter</type>
      <voice>2</voice>
      <staff>2</staff>
    </note>
  </measure>
  <measure number="3">
    <note>
      <pitch>
        <step>E</step>
        <octave>5</octave>
      </pitch>
      <duration>4</duration>
      <type>quarter</type>
      <voice>1</voice>
      <staff>1</staff>
    </note>
    <note>
      <pitch>
        <step>G</step>
        <octave>3</octave>
      </pitch>
      <duration>4</duration>
      <type>quarter</type>
      <voice>2</voice>
      <staff>2</staff>
    </note>
    <note>
      <pitch>
        <step>E</step>
        <octave>5</octave>
      </pitch>
      <duration>4</duration>
      <type>quarter</type>
      <voice>1</voice>
      <staff>1</staff>
    </note>
    <note>
      <pitch>
        <step>B</step>
        <octave>3</octave>
      </pitch>
      <duration>4</duration>
      <type>quarter</type>
      <voice>2</voice>
      <staff>2</staff>
    </note>
  </measure>
  <measure number="4">
    <note>
      <pitch>
        <step>E</step>
        <octave>5</octave>
      </pitch>
      <duration>4</duration>
      <type>quarter</type>
      <voice>1</voice>
      <staff>1</staff>
    </note>
    <note>
      <pitch>
        <step>E</step>
        <octave>5</octave>
      </pitch>
      <duration>4</duration>
      <type>quarter</type>
      <voice>1</voice>
      <staff>1</staff>
    </note>
    <backup>
      <duration>4</duration>
    </backup>
    <note>
      <pitch>
        <step>B</step>
        <octave>3</octave>
      </pitch>
      <duration>4</duration>
      <type>quarter</type>
      <voice>2</voice>
      <staff>2</staff>
    </note>
    <note>
      <pitch>
        <step>E</step>
        <octave>5</octave>
      </pitch>
      <duration>4</duration>
      <type>quarter</type>
      <voice>1</voice>
      <staff>1</staff>
    </note>
    <note>
      <pitch>
        <step>E</step>
        <octave>5</octave>
      </pitch>
      <duration>4</duration>
      <type>quarter</type>
      <voice>1</voice>
      <staff>1</staff>
    </note>
    <backup>
      <duration>4</duration>
    </backup>
    <note>
      <pitch>
        <step>B</step>
        <octave>3</octave>
      </pitch>
      <duration>4</duration>
      <type>quarter</type>
      <voice>2</voice>
      <staff>2</staff>
    </note>
  </measure>
  <measure number="5">
    <note>
      <pitch>
        <step>E</step>
        <octave>5</octave>
      </pitch>
      <duration>4</duration>
      <type>quarter</type>
      <voice>1</voice>
      <staff>1</staff>
    </note>
    <note>
      <pitch>
        <step>E</step>
        <octave>5</octave>
      </pitch>
      <duration>4</duration>
      <type>quarter</type>
      <voice>1</voice>
      <staff>1</staff>
    </note>
    <backup>
      <duration>4</duration>
    </backup>
    <note>
      <pitch>
        <step>B</step>
        <octave>3</octave>
      </pitch>
      <duration>4</duration>
      <type>quarter</type>
      <voice>2</voice>
      <staff>2</staff>
    </note>
    <note>
      <pitch>
        <step>E</step>
        <octave>5</octave>
      </pitch>
      <duration>4</duration>
      <type>quarter</type>
      <voice>1</voice>
      <staff>1</staff>
    </note>
    <note>
      <pitch>
        <step>E</step>
        <octave>5</octave>
      </pitch>
      <duration>4</duration>
      <type>quarter</type>
      <voice>1</voice>
      <staff>1</staff>
    </note>
    <backup>
      <duration>4</duration>
    </backup>
    <note>
      <pitch>
        <step>B</step>
        <octave>3</octave>
      </pitch>
      <duration>4</duration>
      <type>quarter</type>
      <voice>2</voice>
      <staff>2</staff>
    </note>
  </measure>
  <measure number="6">
    <note>
      <pitch>
        <step>E</step>
        <octave>5</octave>
      </pitch>
      <duration>4</duration>
      <type>quarter</type>
      <voice>1</voice>
      <staff>1</staff>
    </note>
    <note>
      <pitch>
        <step>E</step>
        <octave>5</octave>
      </pitch>
      <duration>4</duration>
      <type>quarter</type>
      <voice>1</voice>
      <staff>1</staff>
    </note>
    <backup>
      <duration>4</duration>
    </backup>
    <note>
      <pitch>
        <step>B</step>
        <octave>3</octave>
      </pitch>
      <duration>4</duration>
      <type>quarter</type>
      <voice>2</voice>
      <staff>2</staff>
    </note>
    <note>
      <pitch>
        <step>E</step>
        <octave>5</octave>
      </pitch>
      <duration>4</duration>
      <type>quarter</type>
      <voice>1</voice>
      <staff>1</staff>
    </note>
    <note>
      <pitch>
        <step>G</step>
        <octave>3</octave>
      </pitch>
      <duration>4</duration>
      <type>quarter</type>
      <voice>2</voice>
      <staff>2</staff>
    </note>
  </measure>
  <measure number="7">
    <note>
      <pitch>
        <step>E</step>
        <octave>5</octave>
      </pitch>
      <duration>4</duration>
      <type>quarter</type>
      <voice>1</voice>
      <staff>1</staff>
    </note>
    <note>
      <pitch>
        <step>E</step>
        <octave>5</octave>
      </pitch>
      <duration>4</duration>
      <type>quarter</type>
      <voice>1</voice>
      <staff>1</staff>
    </note>
    <backup>
      <duration>4</duration>
    </backup>
    <note>
      <pitch>
        <step>B</step>
        <octave>3</octave>
      </pitch>
      <duration>4</duration>
      <type>quarter</type>
      <voice>2</voice>
      <staff>2</staff>
    </note>
    <note>
      <pitch>
        <step>E</step>
        <octave>5</octave>
      </pitch>
      <duration>4</duration>
      <type>quarter</type>
      <voice>1</voice>
      <staff>1</staff>
    </note>
    <note>
      <pitch>
        <step>E</step>
        <octave>5</octave>
      </pitch>
      <duration>4</duration>
      <type>quarter</type>
      <voice>1</voice>
      <staff>1</staff>
    </note>
    <backup>
      <duration>4</duration>
    </backup>
    <note>
      <pitch>
        <step>B</step>
        <octave>3</octave>
      </pitch>
      <duration>4</duration>
      <type>quarter</type>
      <voice>2</voice>
      <staff>2</staff>
    </note>
  </measure>
  <measure number="8">
    <note>
      <pitch>
        <step>E</step>
        <octave>5</octave>
      </pitch>
      <duration>4</duration>
      <type>quarter</type>
      <voice>1</voice>
      <staff>1</staff>
    </note>
    <note>
      <pitch>
        <step>B</step>
        <octave>3</octave>
      </pitch>
      <duration>4</duration>
      <type>quarter</type>
      <voice>2</voice>
      <staff>2</staff>
    </note>
    <note>
      <pitch>
        <step>C</step>
        <octave>5</octave>
      </pitch>
      <duration>4</duration>
      <type>quarter</type>
      <voice>1</voice>
      <staff>1</staff>
    </note>
    <note>
      <pitch>
        <step>D</step>
        <octave>5</octave>
      </pitch>
      <duration>4</duration>
      <type>quarter</type>
      <voice>1</voice>
      <staff>1</staff>
    </note>
    <backup>
      <duration>4</duration>
    </backup>
    <note>
      <pitch>
        <step>B</step>
        <octave>3</octave>
      </pitch>
      <duration>4</duration>
      <type>quarter</type>
      <voice>2</voice>
      <staff>2</staff>
    </note>
  </measure>
  </part>
</score-partwise>
