<?xml version="1.0" encoding="UTF-8"?>
<score-partwise version="4.0">
  <work><work-title>Form Texture Chart (Form+Texture)</work-title></work>
  <part-list>
    <score-part id="P1"><part-name>Lead</part-name></score-part>
  </part-list>
  <part id="P1">
    <measure number="1">
      <attributes><divisions>4</divisions>
        <key><fifths>0</fifths><mode>major</mode></key>
        <time><beats>4</beats><beat-type>4</beat-type></time>
        <clef><sign>G</sign><line>2</line></clef></attributes>
      <sound tempo="160"/>
      <note><pitch><step>E</step><octave>4</octave></pitch><duration>2</duration><type>eighth</type></note>
      <note><pitch><step>F</step><octave>4</octave></pitch><duration>2</duration><type>eighth</type></note>
      <note><pitch><step>F</step><alter>1</alter><octave>4</octave></pitch><duration>2</duration><type>eighth</type></note>
      <note><pitch><step>E</step><octave>4</octave></pitch><duration>2</duration><type>eighth</type></note>
      <note><rest/><duration>2</duration><type>quarter</type></note>
      <note><pitch><step>F</step><alter>1</alter><octave>4</octave></pitch><duration>2</duration><type>eighth</type></note>
      <note><pitch><step>G</step><octave>4</octave></pitch><duration>2</duration><type>eighth</type></note>
      <note><pitch><step>G</step><alter>1</alter><octave>4</octave></pitch><duration>2</duration><type>eighth</type></note>
    </measure>
    <measure number="2">
      <note><pitch><step>F</step><alter>1</alter><octave>4</octave></pitch><duration>2</duration><type>eighth</type></note>
      <note><rest/><duration>2</duration><type>quarter</type></note>
      <note><pitch><step>G</step><alter>1</alter><octave>4</octave></pitch><duration>2</duration><type>eighth</type></note>
      <note><pitch><step>A</step><octave>4</octave></pitch><duration>2</duration><type>eighth</type></note>
      <note><pitch><step>A</step><alter>1</alter><octave>4</octave></pitch><duration>2</duration><type>eighth</type></note>
      <note><pitch><step>G</step><alter>1</alter><octave>4</octave></pitch><duration>2</duration><type>eighth</type></note>
      <note><rest/><duration>2</duration><type>quarter</type></note>
      <note><pitch><step>A</step><alter>1</alter><octave>4</octave></pitch><duration>2</duration><type>eighth</type></note>
    </measure>
    <measure number="3">
      <note><pitch><step>B</step><octave>4</octave></pitch><duration>2</duration><type>eighth</type></note>
      <note><pitch><step>C</step><octave>5</octave></pitch><duration>2</duration><type>eighth</type></note>
      <note><pitch><step>A</step><alter>1</alter><octave>4</octave></pitch><duration>2</duration><type>eighth</type></note>
      <note><rest/><duration>2</duration><type>quarter</type></note>
      <note><pitch><step>C</step><octave>5</octave></pitch><duration>2</duration><type>eighth</type></note>
      <note><pitch><step>C</step><alter>1</alter><octave>5</octave></pitch><duration>2</duration><type>eighth</type></note>
      <note><pitch><step>D</step><octave>5</octave></pitch><duration>2</duration><type>eighth</type></note>
      <note><pitch><step>C</step><octave>5</octave></pitch><duration>2</duration><type>eighth</type></note>
    </measure>
    <measure number="4">
      <note><rest/><duration>2</duration><type>quarter</type></note>
      <note><pitch><step>D</step><octave>5</octave></pitch><duration>2</duration><type>eighth</type></note>
      <note><pitch><step>D</step><alter>1</alter><octave>5</octave></pitch><duration>2</duration><type>eighth</type></note>
      <note><pitch><step>E</step><octave>5</octave></pitch><duration>2</duration><type>eighth</type></note>
      <note><pitch><step>D</step><octave>5</octave></pitch><duration>2</duration><type>eighth</type></note>
      <note><rest/><duration>2</duration><type>quarter</type></note>
      <note><pitch><step>E</step><octave>5</octave></pitch><duration>2</duration><type>eighth</type></note>
      <note><pitch><step>F</step><octave>5</octave></pitch><duration>2</duration><type>eighth</type></note>
    </measure>
    <measure number="5">
      <note><pitch><step>F</step><alter>1</alter><octave>5</octave></pitch><duration>2</duration><type>eighth</type></note>
      <note><pitch><step>E</step><octave>5</octave></pitch><duration>2</duration><type>eighth</type></note>
      <note><rest/><duration>2</duration><type>quarter</type></note>
      <note><pitch><step>F</step><alter>1</alter><octave>5</octave></pitch><duration>2</duration><type>eighth</type></note>
      <note><pitch><step>G</step><octave>5</octave></pitch><duration>2</duration><type>eighth</type></note>
      <note><pitch><step>G</step><alter>1</alter><octave>5</octave></pitch><duration>2</duration><type>eighth</type></note>
      <note><pitch><step>F</step><alter>1</alter><octave>5</octave></pitch><duration>2</duration><type>eighth</type></note>
      <note><rest/><duration>2</duration><type>quarter</type></note>
    </measure>
    <measure number="6">
      <note><pitch><step>G</step><alter>1</alter><octave>5</octave></pitch><duration>2</duration><type>eighth</type></note>
      <note><pitch><step>A</step><octave>5</octave></pitch><duration>2</duration><type>eighth</type></note>
      <note><pitch><step>A</step><alter>1</alter><octave>5</octave></pitch><duration>2</duration><type>eighth</type></note>
      <note><pitch><step>G</step><alter>1</alter><octave>5</octave></pitch><duration>2</duration><type>eighth</type></note>
      <note><rest/><duration>2</duration><type>quarter</type></note>
      <note><pitch><step>A</step><alter>1</alter><octave>5</octave></pitch><duration>2</duration><type>eighth</type></note>
      <note><pitch><step>B</step><octave>5</octave></pitch><duration>2</duration><type>eighth</type></note>
      <note><pitch><step>C</step><octave>6</octave></pitch><duration>2</duration><type>eighth</type></note>
    </measure>
    <measure number="7">
      <note><pitch><step>A</step><alter>1</alter><octave>5</octave></pitch><duration>2</duration><type>eighth</type></note>
      <note><rest/><duration>2</duration><type>quarter</type></note>
      <note><pitch><step>C</step><octave>6</octave></pitch><duration>2</duration><type>eighth</type></note>
      <note><pitch><step>C</step><alter>1</alter><octave>6</octave></pitch><duration>2</duration><type>eighth</type></note>
      <note><pitch><step>D</step><octave>6</octave></pitch><duration>2</duration><type>eighth</type></note>
      <note><pitch><step>C</step><octave>6</octave></pitch><duration>2</duration><type>eighth</type></note>
      <note><rest/><duration>2</duration><type>quarter</type></note>
      <note><pitch><step>D</step><octave>6</octave></pitch><duration>2</duration><type>eighth</type></note>
    </measure>
    <measure number="8">
      <note><pitch><step>D</step><alter>1</alter><octave>6</octave></pitch><duration>2</duration><type>eighth</type></note>
      <note><pitch><step>E</step><octave>6</octave></pitch><duration>2</duration><type>eighth</type></note>
      <note><pitch><step>D</step><octave>6</octave></pitch><duration>2</duration><type>eighth</type></note>
      <note><rest/><duration>2</duration><type>quarter</type></note>
      <note><pitch><step>E</step><octave>6</octave></pitch><duration>2</duration><type>eighth</type></note>
      <note><pitch><step>E</step><octave>6</octave></pitch><duration>2</duration><type>eighth</type></note>
      <note><pitch><step>E</step><octave>6</octave></pitch><duration>2</duration><type>eighth</type></note>
      <note><pitch><step>D</step><octave>6</octave></pitch><duration>2</duration><type>eighth</type></note>
    </measure>
    <measure number="9">
      <note><pitch><step>G</step><alter>1</alter><octave>3</octave></pitch><duration>4</duration><type>quarter</type></note>
      <note><pitch><step>A</step><octave>3</octave></pitch><duration>4</duration><type>quarter</type></note>
      <note><pitch><step>A</step><alter>1</alter><octave>3</octave></pitch><duration>4</duration><type>quarter</type></note>
      <note><pitch><step>G</step><alter>1</alter><octave>3</octave></pitch><duration>4</duration><type>quarter</type></note>
    </measure>
    <measure number="10">
      <note><rest/><duration>4</duration><type>quarter</type></note>
      <note><pitch><step>F</step><alter>1</alter><octave>3</octave></pitch><duration>4</duration><type>quarter</type></note>
      <note><pitch><step>G</step><octave>3</octave></pitch><duration>4</duration><type>quarter</type></note>
      <note><pitch><step>G</step><alter>1</alter><octave>3</octave></pitch><duration>4</duration><type>quarter</type></note>
    </measure>
    <measure number="11">
      <note><pitch><step>F</step><alter>1</alter><octave>3</octave></pitch><duration>4</duration><type>quarter</type></note>
      <note><rest/><duration>4</duration><type>quarter</type></note>
      <note><pitch><step>E</step><octave>3</octave></pitch><duration>4</duration><type>quarter</type></note>
      <note><pitch><step>F</step><octave>3</octave></pitch><duration>4</duration><type>quarter</type></note>
    </measure>
    <measure number="12">
      <note><pitch><step>F</step><alter>1</alter><octave>3</octave></pitch><duration>4</duration><type>quarter</type></note>
      <note><pitch><step>E</step><octave>3</octave></pitch><duration>4</duration><type>quarter</type></note>
      <note><rest/><duration>4</duration><type>quarter</type></note>
      <note><pitch><step>D</step><octave>3</octave></pitch><duration>4</duration><type>quarter</type></note>
    </measure>
    <measure number="13">
      <note><pitch><step>D</step><alter>1</alter><octave>3</octave></pitch><duration>4</duration><type>quarter</type></note>
      <note><pitch><step>E</step><octave>3</octave></pitch><duration>4</duration><type>quarter</type></note>
      <note><pitch><step>D</step><octave>3</octave></pitch><duration>4</duration><type>quarter</type></note>
      <note><rest/><duration>4</duration><type>quarter</type></note>
    </measure>
    <measure number="14">
      <note><pitch><step>C</step><octave>3</octave></pitch><duration>4</duration><type>quarter</type></note>
      <note><pitch><step>C</step><alter>1</alter><octave>3</octave></pitch><duration>4</duration><type>quarter</type></note>
      <note><pitch><step>D</step><octave>3</octave></pitch><duration>4</duration><type>quarter</type></note>
      <note><pitch><step>C</step><octave>3</octave></pitch><duration>4</duration><type>quarter</type></note>
    </measure>
    <measure number="15">
      <note><pitch><step>B</step><octave>4</octave></pitch><duration>4</duration><type>quarter</type></note>
      <note><pitch><step>C</step><octave>5</octave></pitch><duration>4</duration><type>quarter</type></note>
      <note><pitch><step>C</step><alter>1</alter><octave>5</octave></pitch><duration>4</duration><type>quarter</type></note>
      <note><pitch><step>B</step><octave>4</octave></pitch><duration>4</duration><type>quarter</type></note>
    </measure>
    <measure number="16">
      <note><rest/><duration>4</duration><type>quarter</type></note>
      <note><pitch><step>C</step><alter>1</alter><octave>5</octave></pitch><duration>4</duration><type>quarter</type></note>
      <note><pitch><step>D</step><octave>5</octave></pitch><duration>4</duration><type>quarter</type></note>
      <note><pitch><step>D</step><alter>1</alter><octave>5</octave></pitch><duration>4</duration><type>quarter</type></note>
    </measure>
    <measure number="17">
      <note><pitch><step>C</step><alter>1</alter><octave>5</octave></pitch><duration>4</duration><type>quarter</type></note>
      <note><rest/><duration>4</duration><type>quarter</type></note>
      <note><pitch><step>D</step><alter>1</alter><octave>5</octave></pitch><duration>4</duration><type>quarter</type></note>
      <note><pitch><step>E</step><octave>5</octave></pitch><duration>4</duration><type>quarter</type></note>
    </measure>
    <measure number="18">
      <note><pitch><step>F</step><octave>5</octave></pitch><duration>4</duration><type>quarter</type></note>
      <note><pitch><step>D</step><alter>1</alter><octave>5</octave></pitch><duration>4</duration><type>quarter</type></note>
      <note><rest/><duration>4</duration><type>quarter</type></note>
      <note><pitch><step>F</step><octave>5</octave></pitch><duration>4</duration><type>quarter</type></note>
    </measure>
    <measure number="19">
      <note><pitch><step>F</step><alter>1</alter><octave>5</octave></pitch><duration>4</duration><type>quarter</type></note>
      <note><pitch><step>G</step><octave>5</octave></pitch><duration>4</duration><type>quarter</type></note>
      <note><pitch><step>F</step><octave>5</octave></pitch><duration>4</duration><type>quarter</type></note>
      <note><rest/><duration>4</duration><type>quarter</type></note>
    </measure>
    <measure number="20">
      <note><pitch><step>G</step><octave>5</octave></pitch><duration>4</duration><type>quarter</type></note>
      <note><pitch><step>G</step><alter>1</alter><octave>5</octave></pitch><duration>4</duration><type>quarter</type></note>
      <note><pitch><step>A</step><octave>5</octave></pitch><duration>4</duration><type>quarter</type></note>
      <note><pitch><step>G</step><octave>5</octave></pitch><duration>4</duration><type>quarter</type></note>
    </measure>
    <measure number="21">
      <note><rest/><duration>4</duration><type>quarter</type></note>
      <note><pitch><step>A</step><octave>5</octave></pitch><duration>4</duration><type>quarter</type></note>
      <note><pitch><step>A</step><alter>1</alter><octave>5</octave></pitch><duration>4</duration><type>quarter</type></note>
      <note><pitch><step>B</step><octave>5</octave></pitch><duration>4</duration><type>quarter</type></note>
    </measure>
    <measure number="22">
      <note><pitch><step>A</step><octave>5</octave></pitch><duration>4</duration><type>quarter</type></note>
      <note><rest/><duration>4</duration><type>quarter</type></note>
      <note><pitch><step>B</step><octave>5</octave></pitch><duration>4</duration><type>quarter</type></note>
      <note><pitch><step>C</step><octave>6</octave></pitch><duration>4</duration><type>quarter</type></note>
    </measure>
    <measure number="23">
      <note><pitch><step>C</step><alter>1</alter><octave>6</octave></pitch><duration>4</duration><type>quarter</type></note>
      <note><pitch><step>B</step><octave>5</octave></pitch><duration>4</duration><type>quarter</type></note>
      <note><rest/><duration>4</duration><type>quarter</type></note>
      <note><pitch><step>C</step><alter>1</alter><octave>6</octave></pitch><duration>4</duration><type>quarter</type></note>
    </measure>
    <measure number="24">
      <note><pitch><step>D</step><octave>6</octave></pitch><duration>4</duration><type>quarter</type></note>
      <note><pitch><step>D</step><alter>1</alter><octave>6</octave></pitch><duration>4</duration><type>quarter</type></note>
      <note><pitch><step>C</step><alter>1</alter><octave>6</octave></pitch><duration>4</duration><type>quarter</type></note>
      <note><rest/><duration>4</duration><type>quarter</type></note>
    </measure>
  </part>
</score-partwise>