<?xml version="1.0" encoding="UTF-8"?>
<score-partwise version="4.0">
  <work><work-title>Hybrid Verify</work-title></work>
  <part-list>
    <score-part id="P1"><part-name>Melody</part-name></score-part>
  </part-list>
  <part id="P1">
    <measure number="1">
      <attributes><divisions>4</divisions>
        <key><fifths>0</fifths><mode>major</mode></key>
        <time><beats>4</beats><beat-type>4</beat-type></time>
        <clef><sign>G</sign><line>2</line></clef></attributes>
      <sound tempo="84"/>
      <note><pitch><step>F</step><alter>1</alter><octave>4</octave></pitch><duration>6</duration><type>half</type></note>
      <note><pitch><step>G</step><alter>1</alter><octave>4</octave></pitch><duration>6</duration><type>half</type></note>
      <note><pitch><step>A</step><octave>4</octave></pitch><duration>6</duration><type>half</type></note>
    </measure>
    <measure number="2">
      <note><rest/><duration>2</duration><type>quarter</type></note>
      <note><pitch><step>C</step><octave>5</octave></pitch><duration>6</duration><type>half</type></note>
      <note><pitch><step>D</step><octave>5</octave></pitch><duration>6</duration><type>half</type></note>
      <note><pitch><step>D</step><alter>1</alter><octave>5</octave></pitch><duration>6</duration><type>half</type></note>
    </measure>
    <measure number="3">
      <note><rest/><duration>4</duration><type>quarter</type></note>
      <note><pitch><step>F</step><alter>1</alter><octave>5</octave></pitch><duration>6</duration><type>half</type></note>
      <note><pitch><step>G</step><alter>1</alter><octave>5</octave></pitch><duration>6</duration><type>half</type></note>
    </measure>
    <measure number="4">
      <note><pitch><step>A</step><octave>5</octave></pitch><duration>6</duration><type>half</type></note>
      <note><pitch><step>C</step><octave>6</octave></pitch><duration>6</duration><type>half</type></note>
      <note><pitch><step>C</step><octave>6</octave></pitch><duration>6</duration><type>half</type></note>
    </measure>
    <measure number="5">
      <note><rest/><duration>2</duration><type>quarter</type></note>
      <note><pitch><step>C</step><octave>6</octave></pitch><duration>6</duration><type>half</type></note>
      <note><pitch><step>C</step><octave>6</octave></pitch><duration>6</duration><type>half</type></note>
      <note><pitch><step>C</step><octave>6</octave></pitch><duration>6</duration><type>half</type></note>
    </measure>
    <measure number="6">
      <note><rest/><duration>4</duration><type>quarter</type></note>
      <note><pitch><step>C</step><octave>6</octave></pitch><duration>6</duration><type>half</type></note>
      <note><pitch><step>C</step><octave>6</octave></pitch><duration>6</duration><type>half</type></note>
    </measure>
    <measure number="7">
      <note><pitch><step>A</step><alter>1</alter><octave>3</octave></pitch><duration>6</duration><type>half</type></note>
      <note><pitch><step>C</step><octave>4</octave></pitch><duration>6</duration><type>half</type></note>
      <note><pitch><step>A</step><octave>3</octave></pitch><duration>6</duration><type>half</type></note>
    </measure>
    <measure number="8">
      <note><rest/><duration>2</duration><type>quarter</type></note>
      <note><pitch><step>B</step><octave>3</octave></pitch><duration>6</duration><type>half</type></note>
      <note><pitch><step>G</step><alter>1</alter><octave>3</octave></pitch><duration>6</duration><type>half</type></note>
      <note><pitch><step>A</step><alter>1</alter><octave>3</octave></pitch><duration>6</duration><type>half</type></note>
    </measure>
    <measure number="9">
      <note><rest/><duration>4</duration><type>quarter</type></note>
      <note><pitch><step>G</step><octave>3</octave></pitch><duration>6</duration><type>half</type></note>
      <note><pitch><step>A</step><octave>3</octave></pitch><duration>6</duration><type>half</type></note>
    </measure>
    <measure number="10">
      <note><pitch><step>F</step><alter>1</alter><octave>3</octave></pitch><duration>6</duration><type>half</type></note>
      <note><pitch><step>G</step><alter>1</alter><octave>3</octave></pitch><duration>6</duration><type>half</type></note>
      <note><pitch><step>F</step><octave>3</octave></pitch><duration>6</duration><type>half</type></note>
    </measure>
    <measure number="11">
      <note><pitch><step>B</step><octave>4</octave></pitch><duration>6</duration><type>half</type></note>
      <note><pitch><step>C</step><alter>1</alter><octave>5</octave></pitch><duration>6</duration><type>half</type></note>
      <note><pitch><step>D</step><octave>5</octave></pitch><duration>6</duration><type>half</type></note>
    </measure>
    <measure number="12">
      <note><rest/><duration>2</duration><type>quarter</type></note>
      <note><pitch><step>F</step><octave>5</octave></pitch><duration>6</duration><type>half</type></note>
      <note><pitch><step>G</step><octave>5</octave></pitch><duration>6</duration><type>half</type></note>
      <note><pitch><step>G</step><alter>1</alter><octave>5</octave></pitch><duration>6</duration><type>half</type></note>
    </measure>
    <measure number="13">
      <note><rest/><duration>4</duration><type>quarter</type></note>
      <note><pitch><step>B</step><octave>5</octave></pitch><duration>6</duration><type>half</type></note>
      <note><pitch><step>C</step><octave>6</octave></pitch><duration>6</duration><type>half</type></note>
    </measure>
    <measure number="14">
      <note><pitch><step>C</step><octave>6</octave></pitch><duration>6</duration><type>half</type></note>
      <note><pitch><step>C</step><octave>6</octave></pitch><duration>6</duration><type>half</type></note>
      <note><pitch><step>C</step><octave>6</octave></pitch><duration>6</duration><type>half</type></note>
    </measure>
    <measure number="15">
      <note><rest/><duration>2</duration><type>quarter</type></note>
      <note><pitch><step>C</step><octave>6</octave></pitch><duration>6</duration><type>half</type></note>
      <note><pitch><step>C</step><octave>6</octave></pitch><duration>6</duration><type>half</type></note>
      <note><pitch><step>C</step><octave>6</octave></pitch><duration>6</duration><type>half</type></note>
    </measure>
  </part>
</score-partwise>